<?xml version="1.0" encoding="iso-8859-1"?>
<!-- Uploaded to: SVG Repo, www.svgrepo.com, Generator: SVG Repo Mixer Tools -->
<svg height="800px" width="800px" version="1.1" id="Layer_1" xmlns="http://www.w3.org/2000/svg" xmlns:xlink="http://www.w3.org/1999/xlink" 
	 viewBox="0 0 503.467 503.467" xml:space="preserve">
<g transform="translate(1 1)">
	<path style="fill:#E4F2DE;" d="M250.733,37.4c117.76,0,213.333,95.573,213.333,213.333s-95.573,213.333-213.333,213.333
		c-117.76,0-213.333-95.573-213.333-213.333S132.973,37.4,250.733,37.4"/>
	<path style="fill:#80D6FA;" d="M464.067,250.733c0-117.76-95.573-213.333-213.333-213.333C132.973,37.4,37.4,132.973,37.4,250.733
		s95.573,213.333,213.333,213.333S464.067,368.493,464.067,250.733 M250.733,3.267C387.267,3.267,498.2,114.2,498.2,250.733
		S387.267,498.2,250.733,498.2S3.267,387.267,3.267,250.733S114.2,3.267,250.733,3.267"/>
	<g>
		<path style="fill:#FFE079;" d="M301.933,179.907c5.12,7.68,8.533,17.067,8.533,28.16s-3.413,20.48-8.533,28.16
			c-5.973,8.533-15.36,14.507-25.6,14.507c-10.24,0-19.627-5.973-25.6-14.507c-5.12-7.68-8.533-17.067-8.533-28.16
			s3.413-20.48,8.533-28.16c5.973-8.533,15.36-14.507,25.6-14.507C286.573,165.4,295.96,171.373,301.933,179.907"/>
		<path style="fill:#FFE079;" d="M114.2,208.067c4.267,0,8.533,4.267,8.533,8.533c0,4.267-4.267,8.533-8.533,8.533
			c-4.267,0-8.533-4.267-8.533-8.533C105.667,212.333,109.933,208.067,114.2,208.067z M284.867,361.667
			c5.12,0,8.533,4.267,8.533,8.533s-3.413,8.533-8.533,8.533c-5.12,0-8.533-4.267-8.533-8.533S279.747,361.667,284.867,361.667z"/>
	</g>
</g>
<path style="fill:#51565F;" d="M251.733,503.467C112.64,503.467,0,390.827,0,251.733S112.64,0,251.733,0
	s251.733,112.64,251.733,251.733S390.827,503.467,251.733,503.467z M251.733,8.533c-133.973,0-243.2,109.227-243.2,243.2
	s109.227,243.2,243.2,243.2s243.2-109.227,243.2-243.2S385.707,8.533,251.733,8.533z M251.733,469.333
	c-120.32,0-217.6-97.28-217.6-217.6s97.28-217.6,217.6-217.6s217.6,97.28,217.6,217.6c0,107.52-76.8,197.973-182.613,215.04
	c-2.56,0.853-4.267-0.853-5.12-3.413c0-2.56,0.853-4.267,3.413-5.12C386.56,442.027,460.8,354.987,460.8,251.733
	c0-115.2-93.867-209.067-209.067-209.067S42.667,136.533,42.667,251.733S136.533,460.8,251.733,460.8
	c2.56,0,4.267,1.707,4.267,4.267C256,467.627,254.293,469.333,251.733,469.333z M285.867,384c-6.827,0-12.8-5.973-12.8-12.8
	s5.973-12.8,12.8-12.8c6.827,0,12.8,5.973,12.8,12.8S292.693,384,285.867,384z M285.867,366.933c-2.56,0-4.267,1.707-4.267,4.267
	c0,2.56,1.707,4.267,4.267,4.267s4.267-1.707,4.267-4.267C290.133,368.64,288.427,366.933,285.867,366.933z M173.227,358.4
	c-0.853,0-0.853,0-1.707,0c-2.56-0.853-3.413-3.413-2.56-5.12c0,0,5.12-16.213-5.12-25.6c-5.12-5.12-9.387-5.12-15.36-5.12
	c-5.973,0-13.653,0-21.333-7.68c-13.653-13.653-7.68-33.28-6.827-34.133c0.853-2.56,3.413-3.413,5.12-2.56
	c2.56,0.853,3.413,3.413,2.56,5.12c0,0-5.12,16.213,5.12,25.6c5.12,5.12,9.387,5.12,15.36,5.12c5.973,0,13.653,0,21.333,7.68
	c13.653,13.653,7.68,33.28,6.827,34.133C176.64,357.547,174.933,358.4,173.227,358.4z M347.307,324.267
	c-6.827,0-11.947-1.707-11.947-1.707c-2.56-0.853-3.413-3.413-2.56-5.12c0.853-2.56,3.413-3.413,5.12-2.56
	c0,0,16.213,5.12,25.6-5.12c5.12-5.12,5.12-9.387,5.12-15.36c0-5.973,0-13.653,7.68-21.333c13.653-13.653,33.28-7.68,34.133-6.827
	c2.56,0.853,3.413,3.413,2.56,5.12c-0.853,2.56-3.413,3.413-5.12,2.56c0,0-16.213-5.12-25.6,5.12c-5.12,5.12-5.12,9.387-5.12,15.36
	c0,5.973,0,13.653-7.68,21.333C363.52,322.56,354.133,324.267,347.307,324.267z M277.333,273.067c-2.56,0-4.267-1.707-4.267-4.267
	V256c-8.533-0.853-16.213-5.973-22.187-11.947L237.227,256c-1.707,1.707-4.267,1.707-5.973-0.853
	c-0.853-0.853-0.853-1.707-0.853-2.56c0-0.853,0.853-2.56,1.707-3.413l14.507-11.947c-4.267-6.827-6.827-14.507-6.827-23.04h-12.8
	c-2.56,0-4.267-1.707-4.267-4.267c0-2.56,1.707-4.267,4.267-4.267h12.8c0.853-8.533,3.413-16.213,6.827-23.04l-14.507-11.947
	c-0.853-0.853-1.707-1.707-1.707-3.413c0-0.853,0-1.707,0.853-2.56c1.707-1.707,4.267-1.707,5.973-0.853l13.653,11.947
	c5.973-6.827,13.653-11.093,22.187-11.947v-14.507c0-2.56,1.707-4.267,4.267-4.267s4.267,1.707,4.267,4.267v12.8
	c8.533,0.853,16.213,5.973,22.187,11.947l13.653-11.947c1.707-1.707,4.267-1.707,5.973,0.853c0.853,0.853,0.853,1.707,0.853,2.56
	c0,0.853-0.853,2.56-1.707,3.413l-14.507,11.947c4.267,6.827,6.827,14.507,6.827,23.04h12.8c2.56,0,4.267,1.707,4.267,4.267
	c0,2.56-1.707,4.267-4.267,4.267h-12.8c-0.853,8.533-3.413,16.213-6.827,23.04l14.507,11.947c0.853,0.853,1.707,1.707,1.707,3.413
	c0,0.853,0,1.707-0.853,2.56c-1.707,1.707-4.267,1.707-5.973,0.853l-13.653-11.947c-5.973,6.827-13.653,11.093-22.187,11.947v12.8
	C281.6,271.36,279.893,273.067,277.333,273.067z M255.147,235.52c5.12,7.68,13.653,11.947,22.187,11.947s16.213-5.12,22.187-11.947
	c0,0,0,0,0.853-0.853c4.267-6.827,7.68-15.36,7.68-25.6c0-10.24-2.56-18.773-7.68-25.6c0,0,0,0-0.853-0.853
	c-5.12-7.68-13.653-11.947-22.187-11.947s-16.213,5.12-22.187,11.947c0,0,0,0-0.853,0.853c-4.267,6.827-7.68,15.36-7.68,25.6
	C246.613,219.307,250.027,227.84,255.147,235.52C255.147,234.667,255.147,234.667,255.147,235.52z M115.2,230.4
	c-6.827,0-12.8-5.973-12.8-12.8c0-6.827,5.973-12.8,12.8-12.8s12.8,5.973,12.8,12.8C128,224.427,122.027,230.4,115.2,230.4z
	 M115.2,213.333c-2.56,0-4.267,1.707-4.267,4.267c0,2.56,1.707,4.267,4.267,4.267c2.56,0,4.267-1.707,4.267-4.267
	C119.467,215.04,117.76,213.333,115.2,213.333z"/>
</svg>