<?xml version="1.0" encoding="iso-8859-1"?>
<!-- Uploaded to: SVG Repo, www.svgrepo.com, Generator: SVG Repo Mixer Tools -->
<svg version="1.1" id="Layer_1" xmlns="http://www.w3.org/2000/svg" xmlns:xlink="http://www.w3.org/1999/xlink" 
	 viewBox="0 0 512 512" xml:space="preserve">
<path style="fill:#FFFFFF;" d="M320,432c0,35.36-28.656,64-64,64s-64-28.656-64-64H320z"/>
<path style="fill:#FAA85F;" d="M80,416h352v-48l-48-64v-96c0-70.688-57.312-128-128-128s-128,57.312-128,128v96l-48,64V416z"/>
<path style="fill:#00384E;" d="M400,298.672V208c0-62.56-40.16-115.776-96-135.6V48c0-26.464-21.536-48-48-48s-48,21.536-48,48v24.4
	c-55.84,19.84-96,73.056-96,135.696c0,1.664,0,70.736,0,90.56l-48,64.016V432h112c0,44.112,35.888,80,80,80s80-35.888,80-80h112
	v-69.328L400,298.672z M240,64V48c0-8.832,7.184-16,16-16c8.816,0,16,7.168,16,16v16H240z M256,480c-26.464,0-48-21.536-48-48h96
	C304,458.464,282.464,480,256,480z M416,400H96v-26.672l42.144-56.192C144,312.464,144,302.352,144,288.992v-66
	c0-5.616,0-10.672-0.432-14.992H144c0-61.744,50.24-112,112-112s112,50.256,112,112v101.328l48,64V400z"/>
<rect x="176" y="192" style="fill:#FFFFFF;" width="32" height="112"/>
</svg>