<?xml version="1.0" encoding="iso-8859-1"?>
<!-- Uploaded to: SVG Repo, www.svgrepo.com, Generator: SVG Repo Mixer Tools -->
<svg height="800px" width="800px" version="1.1" id="Layer_1" xmlns="http://www.w3.org/2000/svg" xmlns:xlink="http://www.w3.org/1999/xlink" 
	 viewBox="0 0 512 512" xml:space="preserve">
<path style="fill:#5D9BEB;" d="M512,256.006C512,397.402,397.394,512.004,256.004,512C114.606,512.004,0,397.402,0,256.006
	C-0.007,114.61,114.606,0,256.004,0C397.394,0,512,114.614,512,256.006z"/>
<path style="fill:#4988DB;" d="M512,256.005c0-10.617-0.722-21.058-1.978-31.335c-0.241-0.23-0.443-0.502-0.709-0.709
	c-0.42-0.603-138.957-139.084-139.526-139.526c-1.695-2.429-4.726-3.697-7.776-2.897c-3.871,1.023-6.181,5.002-5.183,8.876
	c0.046,0.181,1.123,4.781,0.96,12.701h-184.95c-0.281-0.274-0.544-0.541-0.869-0.768c-0.442-0.57-17.595-17.778-18.196-18.198
	c-0.935-1.199-2.156-2.193-3.737-2.622c-3.878-1.023-7.877,1.244-8.93,5.126c-0.739,2.734-13.777,55.479,48.162,118.257
	c0.489,0.503,47.171,47.184,47.25,47.266c-121.984,85.731-94.993,169.92-93.721,173.626c0.494,1.436,82.35,83.391,82.921,83.817
	c0.175,0.238,0.415,0.404,0.615,0.615c9.74,1.124,19.628,1.765,29.67,1.765C397.394,512.004,512,397.401,512,256.005z"/>
<path style="fill:#F4F6F9;" d="M269.332,247.861C391.154,168.074,371.798,89.996,370.895,86.653
	c-1.049-3.86-4.994-6.135-8.883-5.116c-3.871,1.024-6.181,5.002-5.183,8.876c0.046,0.181,1.123,4.781,0.96,12.701H154.213
	c-0.16-7.822,0.885-12.411,0.955-12.69c1.03-3.871-1.262-7.849-5.133-8.897c-3.878-1.024-7.877,1.244-8.929,5.125
	c-0.903,3.343-20.259,81.419,101.567,161.209c-129.169,87.201-101.169,174.174-99.875,177.942c1.038,3.018,3.863,4.916,6.885,4.916
	c0.785,0,1.582-0.128,2.367-0.398c3.804-1.308,5.826-5.45,4.518-9.253c-0.084-0.242-2.373-7.419-2.434-19.473h203.787
	c0.067,0,0.123-0.036,0.19-0.038c-0.157,11.486-2.361,18.557-2.678,19.51c-1.308,3.804,0.715,7.945,4.518,9.253
	c0.785,0.27,1.582,0.398,2.367,0.398c3.022,0,5.847-1.899,6.885-4.916C370.497,422.034,398.494,335.058,269.332,247.861z
	 M183.678,321.515h144.941c7.638,10.189,13.364,19.947,17.654,29.12H166.126C170.409,341.453,176.095,331.693,183.678,321.515z
	 M321.52,183.195H190.48c-0.365,0-0.678,0.156-1.029,0.208c-8.75-10.283-15.43-20.142-20.434-29.328h173.966
	c-5.004,9.186-11.679,19.045-20.429,29.329C322.202,183.351,321.887,183.195,321.52,183.195z M356.261,117.675
	c-1.174,6.404-3.188,13.759-6.427,21.84H162.165c-3.241-8.083-5.248-15.434-6.422-21.84H356.261z M202.809,197.755h106.39
	c-13.642,13.437-31.05,27.393-53.197,41.413C233.855,225.149,216.451,211.191,202.809,197.755z M256.005,256.542
	c26.222,17.135,45.937,34.163,60.595,50.413H195.625C210.231,290.662,229.889,273.621,256.005,256.542z M160.368,364.994
	c0.339,0.048,0.64,0.201,0.993,0.201h189.28c0.491,0,0.921-0.187,1.383-0.279c2.707,8.06,4.327,15.486,5.197,22.119H155.13
	C156.032,380.418,157.668,373.023,160.368,364.994z"/>
</svg>