<?xml version="1.0" encoding="iso-8859-1"?>
<!-- Uploaded to: SVG Repo, www.svgrepo.com, Generator: SVG Repo Mixer Tools -->
<svg height="800px" width="800px" version="1.1" id="Layer_1" xmlns="http://www.w3.org/2000/svg" xmlns:xlink="http://www.w3.org/1999/xlink" 
	 viewBox="0 0 392.598 392.598" xml:space="preserve">
<path style="fill:#FFFFFF;" d="M311.422,370.747c16.162-21.204,84.622-122.699,5.43-225.487
	c-14.675-19.006-24.113-40.404-27.281-61.802c-3.297-22.109-0.711-42.731,7.758-61.673H95.244c0,0,30.061,59.345-19.523,123.475
	c-79.192,102.788-10.731,204.218,5.43,225.487"/>
<path style="fill:#FFC10D;" d="M299.592,158.578c-16.937-21.915-27.798-46.804-31.612-71.952
	c-2.133-14.739-2.069-29.22,0.259-43.119H124.27c1.099,6.594,1.681,13.317,1.745,20.105h47.127c6.012,0,10.925,4.848,10.925,10.925
	c0,6.077-4.848,10.925-10.925,10.925h-48.549c-0.065,0.388-2.78,14.998-4.848,21.786h18.36c6.012,0,10.925,4.848,10.925,10.925
	c0,6.012-4.848,10.925-10.925,10.925h-27.022c-4.913,10.214-10.99,20.17-18.23,29.543c-61.867,80.097-20.04,160.646-0.517,190.19
	h207.968C320.085,319.612,362.04,239.515,299.592,158.578z"/>
<path style="fill:#194F82;" d="M334.113,132.008c-12.348-16.097-20.299-33.939-22.949-51.717
	c-3.491-23.337,1.164-44.606,13.77-63.289C330.04,9.438,324.028,0,315.883,0H76.755c-9.891,0-13.899,10.408-9.051,17.002
	c12.606,18.618,17.131,39.952,13.77,63.289c-2.651,17.778-10.602,35.62-22.949,51.717c-98.069,127.095,7.952,255.418,9.051,256.711
	c2.069,2.457,5.107,3.879,8.339,3.879h240.873c3.232,0,6.271-1.422,8.339-3.879C326.097,387.362,432.117,259.103,334.113,132.008z
	 M311.422,370.747h-104.21V269.77l45.188-45.188c4.267-4.267,4.267-11.119,0-15.451c-4.267-4.267-11.119-4.267-15.451,0
	l-40.663,40.727l-40.727-40.727c-4.267-4.267-11.119-4.267-15.451,0c-4.267,4.267-4.267,11.119,0,15.451l45.253,45.188v100.978
	H81.151C64.99,349.479-3.471,248.048,75.656,145.261C125.175,81.131,95.18,21.786,95.18,21.786h202.15
	c-8.404,18.941-11.055,39.564-7.758,61.673c3.168,21.398,12.606,42.796,27.281,61.802
	C396.044,248.048,327.584,349.479,311.422,370.747z"/>
</svg>