<?xml version="1.0" encoding="iso-8859-1"?>
<!-- Uploaded to: SVG Repo, www.svgrepo.com, Generator: SVG Repo Mixer Tools -->
<svg height="800px" width="800px" version="1.1" id="Layer_1" xmlns="http://www.w3.org/2000/svg" xmlns:xlink="http://www.w3.org/1999/xlink" 
	 viewBox="0 0 512 512" xml:space="preserve">
<path style="fill:#5D9BEB;" d="M0,256.006C0,397.402,114.606,512.004,255.996,512C397.394,512.004,512,397.402,512,256.006
	C512.009,114.61,397.394,0,255.996,0C114.606,0,0,114.614,0,256.006z"/>
<path style="fill:#4988DB;" d="M512,256.005c0.001-7.314-0.379-14.537-0.98-21.695c-0.256-0.267-0.505-0.535-0.796-0.796
	c-0.522-0.501-146.551-146.611-147.105-147.105c-8.929-8.588-22.338-16.117-42.806-19.91
	c-76.417-14.14-176.306,18.788-227.148,124.288c-28.276,58.684-33.621,121.294-14.672,171.795
	c6.727,17.924,16.254,33.267,28.118,45.781c0.485,0.53,96.569,96.542,97.061,97.061c0.485,0.53,1.022,0.995,1.516,1.516
	c16.423,3.307,33.409,5.059,50.807,5.058C397.394,512.004,512,397.401,512,256.005z"/>
<g>
	<path style="fill:#F4F6F9;" d="M227.302,280.071c-14.947,1.262-31.509,4.115-46.124,6.631c-6.517,1.121-12.803,2.203-18.631,3.097
		c-4.382,0.667-7.391,4.766-6.717,9.147c0.674,4.389,4.793,7.383,9.147,6.717c5.922-0.909,12.306-2.006,18.925-3.143
		c14.587-2.516,29.655-5.11,43.591-6.356c-3.045,9.453-19.622,31.062-25.474,38.689l-3.425,4.483
		c-2.676,3.535-1.979,8.567,1.556,11.239c1.45,1.098,3.151,1.63,4.836,1.63c2.43,0,4.829-1.098,6.407-3.182l3.362-4.405
		c23.459-30.576,33.579-47.044,27.637-57.908C240.847,283.888,236.811,279.279,227.302,280.071z"/>
	<path style="fill:#F4F6F9;" d="M227.733,238.859c2.339-13.388-10.841-26.987-52.225-53.903c-3.715-2.43-8.688-1.364-11.106,2.351
		s-1.364,8.685,2.351,11.099c42.412,27.582,45.293,35.836,45.179,37.654c-1.897,4.883-26.9,10.769-46.989,15.488
		c-6,1.411-12.4,2.924-19.145,4.57c-4.303,1.058-6.937,5.408-5.883,9.711c0.897,3.661,4.178,6.114,7.787,6.114
		c0.635,0,1.278-0.07,1.92-0.227c6.69-1.646,13.039-3.135,18.992-4.539C205.046,258.61,225.111,253.892,227.733,238.859z"/>
	<path style="fill:#F4F6F9;" d="M263.817,143.649c-4.362,0.775-7.269,4.938-6.494,9.303c2.014,11.349,3.163,28.045,2.626,37.905
		c-0.772-0.274-1.58-0.572-2.285-0.831c-1.642-0.604-3.386-1.246-5.204-1.819c-16.848-5.298-35.789-17.283-52.096-28.311
		c-3.668-2.477-8.665-1.521-11.141,2.147c-2.484,3.676-1.521,8.661,2.151,11.146c17.263,11.679,37.451,24.416,56.273,30.334
		c1.559,0.486,3.049,1.042,4.452,1.559c3.441,1.269,7.164,2.65,10.844,2.65c2.281,0,4.546-0.525,6.717-1.936
		c5.62-3.637,6.094-10.621,6.247-12.909c0.752-10.973-0.47-29.745-2.783-42.741C272.352,145.781,268.237,142.85,263.817,143.649z"/>
	<path style="fill:#F4F6F9;" d="M444.021,350.575c-16.048-62.141-53.479-89.198-83.554-110.941
		c-8.621-6.234-16.832-12.255-24.031-18.617c28.259-29.584,52.141-74.966,41.408-110.751c-4.793-15.989-18.667-36.564-57.532-43.767
		c-76.417-14.14-176.306,18.788-227.148,124.288c-28.276,58.684-33.621,121.294-14.673,171.795
		c12.945,34.487,36.047,59.671,66.812,72.816c20.622,8.81,41.225,13.207,61.713,13.207c27.029,0,53.852-7.658,80.219-22.974
		c53.393-31.019,73.228-73.618,55.473-117.833c1.285-0.046,2.532-0.06,3.68-0.005l1.885,0.086
		c11.342,0.47,37.905,1.568,57.429,54.976c3.006,8.207,10.562,13.435,18.807,13.435c1.258,0,2.531-0.126,3.806-0.377
		c5.385-1.051,10.181-4.358,13.156-9.076C444.515,362.018,445.444,356.084,444.021,350.575z M427.899,358.272
		c-0.368,0.588-1.203,1.606-2.669,1.889c-1.861,0.377-3.719-0.815-4.448-2.821c-23.213-63.488-59.817-65.002-71.844-65.495
		l-1.603-0.07c-25.282-1.599-75.508,15.378-110.023,68.019c-2.43,3.708-1.395,8.676,2.313,11.106
		c3.715,2.446,8.688,1.395,11.115-2.313c22.725-34.665,53.044-51.929,75.651-58.097c17.269,38.253,1.065,73.219-47.215,101.262
		c-41.738,24.236-84.663,27.214-127.561,8.881c-26.638-11.373-46.726-33.398-58.092-63.693
		c-17.162-45.728-11.89-105.235,14.105-159.176C154.793,99.882,246.976,69.234,317.39,82.285
		c24.807,4.593,39.974,15.558,45.081,32.591c8.445,28.176-11.582,67.526-37.028,94.431c-7.504-11.924-8.3-37.561-8.825-56.778
		c-0.091-3.229-0.176-6.349-0.283-9.303c-0.161-4.42-3.758-7.995-8.32-7.721c-4.429,0.164-7.885,3.888-7.725,8.316
		c0.11,2.908,0.192,5.972,0.278,9.147c0.702,25.685,1.498,54.804,14.571,69.61c9.986,11.31,22.586,20.418,35.922,30.059
		c29.444,21.289,62.815,45.414,77.417,101.95C428.917,356.297,428.303,357.629,427.899,358.272z"/>
</g>
</svg>