<?xml version="1.0" encoding="iso-8859-1"?>
<!-- Uploaded to: SVG Repo, www.svgrepo.com, Generator: SVG Repo Mixer Tools -->
<svg height="800px" width="800px" version="1.1" id="Layer_1" xmlns="http://www.w3.org/2000/svg" xmlns:xlink="http://www.w3.org/1999/xlink" 
	 viewBox="0 0 512 512" xml:space="preserve">
<path style="fill:#AB91EA;" d="M0,256.006C0,397.402,114.606,512.004,255.996,512C397.394,512.004,512,397.402,512,256.006
	C512.009,114.61,397.394,0,255.996,0C114.606,0,0,114.614,0,256.006z"/>
<path style="fill:#947ADB;" d="M512,256.005c0-2.646-0.119-5.264-0.199-7.891c-0.255-0.249-0.506-0.499-0.755-0.754
	c-0.489-0.526-96.562-96.551-97.065-97.066c-12.582-13.533-29.37-22.715-51.642-22.715c-7.028,0-13.694,1.052-19.899,3.014
	c-0.123-0.106-0.274-0.174-0.403-0.272c-0.442-0.582-0.935-1.075-1.518-1.517c-0.442-0.581-61.597-61.738-62.179-62.179
	c-1.466-1.929-3.676-3.255-6.288-3.255c-4.436,0-8.026,3.589-8.026,8.026v12.822c-0.327-0.358-0.721-0.617-1.108-0.911
	c-0.442-0.582-16.1-16.241-16.683-16.683c-1.465-1.929-3.675-3.255-6.287-3.255c-4.437,0-8.027,3.589-8.027,8.026v111.858
	c-0.117-0.124-0.243-0.238-0.362-0.361c-0.48-0.53-1.014-0.997-1.511-1.509c-0.484-0.534-32.869-32.857-33.371-33.372
	c-11.628-12.831-28.007-20.43-46.993-20.43c-70.457,0-86.314,91.549-86.314,123.615c0,17.36,7.582,71.524,36.324,102.619
	c0.476,0.541,1.029,0.99,1.517,1.517c0.475,0.54,155.721,155.68,156.206,156.206c0.131,0.148,0.278,0.279,0.417,0.417
	C398.383,510.964,512,396.784,512,256.005z"/>
<g>
	<path style="fill:#F4F6F9;" d="M215.155,199.715c0-41.801-27.535-72.134-65.472-72.134c-70.457,0-86.313,91.549-86.313,123.615
		c0,24.838,15.362,125.198,86.313,125.198c37.936,0,65.472-30.334,65.472-72.134c0-12.548-3.708-21.868-6.976-30.098
		c-2.947-7.43-5.494-13.842-5.494-22.174c0-8.316,2.547-14.727,5.494-22.15C211.449,221.606,215.155,212.271,215.155,199.715z
		 M193.264,280.086c3.002,7.556,5.839,14.697,5.839,24.173c0,33.022-20.324,56.081-49.419,56.081
		c-58.049,0-70.26-91.188-70.26-109.146c0-1.074,3.018-107.562,70.26-107.562c29.095,0,49.419,23.059,49.419,56.081
		c0,9.484-2.837,16.633-5.839,24.196c-3.261,8.207-6.631,16.687-6.631,28.076C186.633,263.391,190.003,271.879,193.264,280.086z"/>
	<path style="fill:#F4F6F9;" d="M362.339,127.581c-37.936,0-65.472,30.334-65.472,72.134c0,12.557,3.699,21.884,6.96,30.122
		c2.947,7.423,5.487,13.835,5.487,22.15c0,8.339-2.54,14.751-5.487,22.181c-3.261,8.222-6.96,17.55-6.96,30.091
		c0,41.801,27.535,72.134,65.472,72.134c70.934,0,86.289-100.358,86.289-125.198C448.629,219.13,432.772,127.581,362.339,127.581z
		 M362.339,360.34c-29.095,0-49.419-23.059-49.419-56.081c0-9.476,2.83-16.617,5.831-24.18c3.252-8.207,6.615-16.687,6.615-28.092
		c0-11.389-3.362-19.87-6.615-28.068c-3.002-7.564-5.831-14.713-5.831-24.204c0-33.022,20.324-56.081,49.419-56.081
		c67.219,0,70.237,106.489,70.237,107.562C432.576,269.152,420.365,360.34,362.339,360.34z"/>
	<path style="fill:#F4F6F9;" d="M239.948,63.372c-4.436,0-8.027,3.589-8.027,8.027v369.205c0,4.436,3.589,8.027,8.027,8.027
		c4.436,0,8.027-3.589,8.027-8.027V71.397C247.973,66.961,244.384,63.372,239.948,63.372z"/>
	<path style="fill:#F4F6F9;" d="M272.052,63.372c-4.436,0-8.027,3.589-8.027,8.027v369.205c0,4.436,3.589,8.027,8.027,8.027
		c4.436,0,8.027-3.589,8.027-8.027V71.397C280.079,66.961,276.489,63.372,272.052,63.372z"/>
</g>
</svg>