<?xml version="1.0" encoding="iso-8859-1"?>
<!-- Uploaded to: SVG Repo, www.svgrepo.com, Generator: SVG Repo Mixer Tools -->
<svg height="800px" width="800px" version="1.1" id="Layer_1" xmlns="http://www.w3.org/2000/svg" xmlns:xlink="http://www.w3.org/1999/xlink" 
	 viewBox="0 0 512 512" xml:space="preserve">
<path style="fill:#AB91EA;" d="M512,256.006C512,397.402,397.394,512.004,256.004,512C114.606,512.004,0,397.402,0,256.006
	C-0.007,114.61,114.606,0,256.004,0C397.394,0,512,114.614,512,256.006z"/>
<path style="fill:#947ADB;" d="M511.031,277.538c-0.338-0.374-218.892-219.013-219.456-219.457c-1.548-2.046-3.94-3.338-6.577-3.371
	l-78.275-0.972h-0.107c-2.724,0-5.284,1.317-6.864,3.543c-1.605,2.251-2,5.148-1.061,7.748c3.621,10.033,2.321,28.549,1.267,43.429
	c-0.354,5.135-0.691,9.946-0.831,14.11c-0.485,15.937-7.201,33.694-20.542,54.289c-14.049,21.633-19.695,39.982-19.498,63.317
	c0.075,10.494,3.984,19.164,11.308,25.073c0.02,0.016,0.048,0.026,0.068,0.042c0.509,0.473,14.505,14.626,15.022,15.046
	c-2.195,0.811-4.418,1.837-6.604,3.462c-11.836,8.773-11.917,19.751-11.07,29.356c1.276,14.271,9.621,26.139,16.987,36.615
	c2.749,3.901,5.341,7.588,7.482,11.226c10.007,16.995,12.765,38.361,15.431,59.025c1.358,10.501,2.757,21.357,5.094,31.669
	c0.464,2.051,1.678,3.734,3.274,4.901c0.459,0.562,0.935,1.092,1.518,1.517c0.457,0.561,52.498,52.656,53.081,53.081
	c0.101,0.125,0.233,0.215,0.337,0.337C398.258,504.171,500.499,403.909,511.031,277.538z"/>
<path style="fill:#F4F6F9;" d="M343.884,210.921c-5.119-10.222-11.332-19.168-17.332-27.822
	c-5.292-7.626-10.288-14.831-14.683-22.929c-5.975-10.995-9.21-24.83-12.345-38.208l-1.819-7.67
	c-1.473-6.029-1.415-14.333-1.366-22.365c0.074-11.267,0.157-22.925-3.679-32.051c-1.3-3.094-4.313-5.123-7.662-5.165l-78.275-0.971
	c-0.042,0-0.074,0-0.107,0c-2.724,0-5.283,1.317-6.864,3.543c-1.605,2.251-2,5.148-1.061,7.748
	c3.621,10.032,2.321,28.549,1.267,43.429c-0.354,5.136-0.691,9.946-0.831,14.11c-0.485,15.937-7.201,33.694-20.542,54.289
	c-14.049,21.633-19.694,39.981-19.497,63.317c0.074,10.493,3.983,19.164,11.308,25.073c8.66,6.997,22.223,9.786,37.057,7.873
	c-1.371,1.019-2.748,1.987-4.179,2.842c-2.025,1.218-4.749,1.605-7.901,2.058c-4.815,0.7-10.814,1.555-16.493,5.777
	c-11.835,8.773-11.917,19.751-11.07,29.357c1.276,14.271,9.621,26.139,16.987,36.615c2.749,3.901,5.341,7.588,7.482,11.226
	c10.007,16.995,12.765,38.359,15.431,59.025c1.358,10.501,2.757,21.357,5.094,31.669c0.873,3.86,4.304,6.568,8.213,6.568
	c0.164,0,0.337-0.009,0.502-0.016l65.939-3.86c4.452-0.255,7.934-3.95,7.934-8.411c0-30.69,5.909-61.601,19.159-100.234
	c1.276-3.737,2.93-7.465,4.683-11.407c5.407-12.189,11.538-26.006,6.576-42.31c-1.436-4.764-4.031-8.149-7.18-10.749
	c6.172-0.063,12.167-1.077,17.665-3.571c6.806-3.094,11.786-8.641,14.402-16.057C356.804,244.322,348.903,220.879,343.884,210.921z
	 M303.828,327.494c-1.819,4.107-3.703,8.353-5.226,12.781c-12.748,37.183-19.011,67.716-19.941,97.74l-50.836,2.979
	c-1.366-7.407-2.354-15.102-3.391-23.126c-2.889-22.345-5.868-45.454-17.637-65.428c-2.485-4.222-5.391-8.362-8.213-12.362
	c-6.74-9.588-13.11-18.65-13.983-28.41c-0.74-8.386,0.107-11.201,4.329-14.329c2.148-1.597,4.757-2.041,8.847-2.625
	c4.321-0.625,9.226-1.333,14.147-4.279c4.049-2.419,7.456-5.161,10.756-7.81c5.942-4.782,10.634-8.559,17.316-9.423
	c1.843-0.239,3.646-0.354,5.349-0.354c4.107,0,7.654,0.667,9.835,1.893c2.239,1.276,4.279,2.724,6.321,4.156
	c4.016,2.815,8.559,6.007,14.329,8.058c4.379,1.572,9.391,2.148,14.69,2.765c10.313,1.201,17.719,2.412,19.159,7.193
	C312.815,307.232,308.651,316.622,303.828,327.494z M334.798,256.042c-1.094,3.107-2.831,5.115-5.465,6.308
	c-12.435,5.642-33.694-1.543-47.775-6.304l-5.449-1.819c-11.604-3.765-20.838-5.234-32.937-5.234
	c-9.449,0-16.517,2.058-23.357,4.049c-3.152,0.917-6.411,1.872-10.074,2.642c-11.744,2.448-23.052,1.057-28.764-3.551
	c-3.349-2.704-4.995-6.654-5.037-12.09c-0.173-20.003,4.534-35.147,16.789-54.014c15.061-23.258,22.666-43.845,23.242-62.93
	c0.131-3.963,0.452-8.555,0.798-13.452c0.906-12.867,1.901-27.011,0.379-38.919l61.396,0.762c1.037,5.748,0.988,13.131,0.946,20.332
	c-0.066,9.053-0.124,18.415,1.836,26.464l1.786,7.522c3.391,14.46,6.889,29.418,13.941,42.401
	c4.831,8.909,10.329,16.834,15.645,24.5c5.934,8.547,11.531,16.617,16.131,25.785C333.522,227.804,338.477,245.61,334.798,256.042z"
	/>
</svg>