<?xml version="1.0" encoding="iso-8859-1"?>
<!-- Uploaded to: SVG Repo, www.svgrepo.com, Generator: SVG Repo Mixer Tools -->
<svg height="800px" width="800px" version="1.1" id="Layer_1" xmlns="http://www.w3.org/2000/svg" xmlns:xlink="http://www.w3.org/1999/xlink" 
	 viewBox="0 0 512 512" xml:space="preserve">
<path style="fill:#FA6E51;" d="M0,256.006C0,397.401,114.606,512.004,255.996,512C397.394,512.004,512,397.402,512,256.006
	C512.008,114.61,397.394,0,255.995,0C114.605,0,0,114.614,0,256.006z"/>
<path style="fill:#E8573F;" d="M511.516,271.151c-0.057-0.055-0.113-0.114-0.17-0.17c-0.51-0.503-128.406-128.426-128.922-128.922
	c-21.022-20.75-44.385-34.028-62.784-36.828c-13.981-2.128-25.296-2.866-34.607-2.812c-0.335-0.373-26.334-26.295-26.918-26.733
	c-1.393-1.86-3.51-3.143-6.017-3.143h-30.576c-4.225,0-7.644,3.42-7.644,7.645v55.075c-2.881,4.71-8.331,15.959-6.487,31.226
	c1.748,14.502,9.486,28.634,22.928,42.179c0.485,0.507,30.813,30.839,31.06,31.093c9.413,15.067,9.263,29.827,4.439,40.417
	c-7.748,17.035-26.829,25.321-48.484,21.133c-7.756-1.5-15.901-3.337-24.172-5.196c-38.653-8.689-78.65-17.684-101.089,0.284
	c-10.481,8.383-15.789,21.738-15.789,39.698v95.714c0,2.506,1.282,4.622,3.142,6.016c0.438,0.586,20.649,20.795,21.233,21.233
	c0.438,0.585,0.932,1.078,1.517,1.517c0.085,0.114,0.206,0.188,0.295,0.295c42.772,32.101,95.921,51.129,153.52,51.128
	C392.306,512.004,503.674,405.489,511.516,271.151z"/>
<path style="fill:#F4F6F9;" d="M422.417,199.581c-23.47-52.836-70.692-89.467-102.775-94.348
	c-30.807-4.688-49.223-2.851-59.898,0.105v-25.15c0-4.225-3.419-7.644-7.644-7.644h-30.576c-4.225,0-7.644,3.419-7.644,7.644v55.075
	c-2.881,4.71-8.331,15.959-6.487,31.226c2.269,18.819,14.519,37.026,36.399,54.121c26.732,20.879,28.911,44.461,22.029,59.569
	c-7.748,17.035-26.829,25.321-48.484,21.133c-7.756-1.501-15.9-3.337-24.171-5.196c-38.653-8.689-78.65-17.684-101.089,0.284
	c-10.481,8.383-15.788,21.738-15.788,39.698v95.714c0,4.225,3.419,7.644,7.644,7.644h38.212c4.225,0,7.644-3.419,7.644-7.644
	v-61.227c0.007-0.246,0.179-6.047,4.576-8.458c3.456-1.904,14.676-4.382,44.147,13.474c71.036,43.012,169.93,54.083,234.545-43.834
	C446.693,280.805,436.712,231.762,422.417,199.581z M400.292,323.348c-58.637,88.877-148.931,78.508-213.853,39.175
	c-27.247-16.505-46.752-20.976-59.689-13.653c-9.712,5.487-12.265,16.206-12.25,21.648v53.65H91.575v-88.07
	c0-13.273,3.284-22.35,10.048-27.762c16.721-13.377,54.679-4.83,88.19,2.694c8.428,1.897,16.721,3.762,24.611,5.285
	c28.941,5.636,54.531-6.107,65.317-29.807c11.667-25.649,1.254-56.24-26.545-77.948c-47.11-36.802-26.523-65.131-25.671-66.258
	c1.068-1.351,1.643-3.015,1.643-4.733V87.831h15.289v29.307c0,3.083,1.695,5.995,4.539,7.188c2.836,1.172,5.965,0.702,8.166-1.463
	c0.119-0.097,12.899-9.719,60.181-2.523c27.523,4.195,70.707,39.534,91.108,85.45C421.193,234.479,430.121,278.156,400.292,323.348z
	"/>
</svg>