<?xml version="1.0" encoding="iso-8859-1"?>
<!-- Uploaded to: SVG Repo, www.svgrepo.com, Generator: SVG Repo Mixer Tools -->
<svg height="800px" width="800px" version="1.1" id="Layer_1" xmlns="http://www.w3.org/2000/svg" xmlns:xlink="http://www.w3.org/1999/xlink" 
	 viewBox="0 0 508.4 508.4" xml:space="preserve">
<path style="fill:#FFCDD2;" d="M234.8,411.4c0-1.2-0.4-2-0.4-3.2C234.4,409.4,234.4,410.2,234.8,411.4z"/>
<path style="fill:#FFAB91;" d="M297.2,286.2c11.6-14.4,24.8-30.8,35.2-53.6c9.2-20.8,12.8-38,15.2-54.4c4-23.2,6.4-37.2,30-52
	c10.8-6.8,22.4-12.8,35.2-12.8c34,0,62,27.6,62,62c0,16-6,31.2-17.2,42.8c2.4,1.6,4.8,3.2,6.8,4.8c2,2,3.6,4.4,4.4,7.6
	c0.8,4.8,0.8,10,0,14.8c0.4-0.4,1.2-0.8,1.6-1.2c20.4-17.2,32.4-42,32.4-68.8c0-49.6-40-89.6-89.6-89.6c-24,0-42.4,12-58.8,22.8
	l-3.6,2.4c-22,14.4-47.2,30.8-96.4,30.8S180,125.4,158,111l-3.2-2C138.4,98.2,120,86.2,96,86.2c-49.6,0-89.6,40.4-89.6,89.6
	c0,26.8,11.6,51.6,32.4,68.8c0.4,0.4,0.4,0.4,0.8,0.4c-0.8-4.8-0.8-9.6,0-14.4c0.4-2.8,2-5.6,4.4-7.6s4.8-4,7.6-5.2
	c-4.8-5.6-17.2-22.4-17.2-42.4c0-34,27.6-62,62-62c12.8,0,24.4,6,35.2,12.8c23.2,14.8,25.6,28.8,29.6,52
	c2.4,14.8,5.6,32.8,15.2,54.4c11.2,25.2,24,42,35.6,56c16.8,20.8,27.2,35.2,27.2,60v59.6c0,7.6,6.4,14,14,14s14-6.4,14-14v-59.6
	c0-24,11.6-38.4,26.8-56.8L297.2,286.2z M274.8,271c-6.8,8.4-13.2,16.4-18.8,24.8c-0.4,0.4-0.8,0.8-1.6,0.8s-1.2-0.4-1.6-0.8
	c-5.6-8.8-12-16.4-18.8-24.8c-11.6-14.4-23.6-28.8-32.8-50c-8-18-10.8-33.2-13.2-47.6c-0.8-4.4-1.6-8.8-2.4-13.2c0-0.8,0-1.6,0.8-2
	c0.4-0.4,1.2-0.8,2-0.4c20,7.6,41.6,11.2,66,11.2s46-3.6,66-11.2c0.8-0.4,1.6,0,2,0.4s0.8,1.2,0.8,2c-0.8,4.4-1.6,8.8-2.4,13.2
	c-0.4,3.2-1.2,6.4-1.6,9.6c-0.4,1.2-5.6,25.2-11.6,38C298.4,242.2,286.4,256.6,274.8,271L274.8,271z"/>
<g>
	<path style="fill:#E57373;" d="M105.2,243.4c-2.4-9.2-8.4-17.2-17.2-22c-5.6-3.2-11.6-4.8-17.6-4.8c-4.8,0-10,1.2-14.4,3.2
		c-0.8,0.4-2,0.8-2.8,1.2c-0.8,0.4-2,1.2-2.8,1.6c-1.2,0.8-2.8,2-4,3.2c-1.6,1.6-2.4,3.2-2.8,5.2c-0.4,3.2-0.8,6-0.4,9.2
		c0,1.2,0.4,2.8,0.4,4c0,0.8,0.4,2,0.4,2.8c0,0.4,0,0.4,0.4,0.8c2.4,9.2,8.4,16.8,16.8,21.6c5.6,3.2,11.6,4.8,17.6,4.8
		c8.8,0,17.2-3.2,24-9.2c1.6-1.2,2.4-3.2,2.8-5.2C106.4,254.2,106.4,248.6,105.2,243.4z"/>
	<path style="fill:#E57373;" d="M464.8,231c-0.4-2-1.6-4-2.8-5.2c-1.2-1.2-2.4-2-3.6-2.8c-0.8-0.8-2-1.2-2.8-1.6s-1.6-0.8-2.8-1.2
		c-4.4-2-9.6-3.2-14.8-3.2c-6,0-12.4,1.6-17.6,4.8c-8.4,4.8-14.4,12.8-17.2,22c-1.2,5.2-1.6,10.8-0.4,16c0.4,2,1.6,4,2.8,5.2
		c6.4,6,14.8,9.2,23.6,9.2c6,0,12.4-1.6,17.6-4.8c8-4.4,13.6-11.6,16.4-20.4c0-0.4,0.4-1.2,0.4-1.6s0.4-1.2,0.4-1.6
		c0.4-1.2,0.4-2.8,0.8-4C465.6,237.8,465.2,234.6,464.8,231z"/>
</g>
<path d="M252.4,428.2c-10.8,0-20-8.8-20-20v-59.6c0-23.2-9.6-36.4-25.6-56c-11.6-14.4-24.8-32-36.4-57.2
	c-9.6-22-12.8-40.8-15.6-55.6c-4-23.2-6-34.8-27.2-48c-11.6-7.2-21.2-12-32-12c-30.8,0-56,25.2-56,56c0,21.6,17.2,40,17.2,40.4
	c1.6,1.6,1.6,4,0,5.6s-4,1.6-5.6,0C50.4,221,32,201,32,175.8c0-35.2,28.8-64,64-64c13.2,0,25.2,6.4,36.4,13.2
	c24,15.2,26.8,29.6,30.8,53.6c2.4,14.4,5.6,32.8,14.8,54c10.8,24.8,24,41.6,35.2,55.6c17.2,21.2,27.6,36,27.6,61.2V409
	c0,6.4,5.2,12,12,12c6.4,0,12-5.2,12-12v-59.6c0-24.8,12-39.6,27.2-58.4l4-4.8c11.6-14.4,24.8-30.4,34.8-53.2
	c9.6-22,13.2-41.2,15.2-54c4-23.6,6.4-38,30.8-53.6c11.2-6.8,23.2-13.2,36.4-13.2c35.2,0,64,28.8,64,64c0,17.6-7.2,34-19.6,46.4
	c-1.6,1.6-4,1.6-5.6,0s-1.6-4,0-5.6c11.2-10.8,17.2-24.8,17.2-40.4c0-30.8-25.2-56-56-56c-11.6,0-22.4,5.6-32.4,12
	c-21.2,13.6-23.2,25.2-27.2,48c-2.8,16.4-6.4,34.4-15.6,55.6c-10.4,23.6-24,40.4-36,55.2l-4,4.8c-14.8,18.4-25.6,31.6-25.6,53.2V409
	C272.4,419,263.2,428.2,252.4,428.2z M254.4,299L254.4,299c-1.2,0-2.8-0.8-3.2-2c-5.6-8.8-12-16.8-18.4-24.8
	c-11.6-14.4-23.6-29.2-32.8-50.4c-8-18.4-10.8-33.6-13.2-48.4c-0.8-4.4-1.6-8.8-2.4-13.2c-0.4-1.6,0.4-2.8,1.2-4
	c1.2-0.8,2.8-1.2,4-0.8c20,7.2,41.2,10.8,65.2,10.8s45.2-3.6,65.2-10.8c1.2-0.4,2.8-0.4,4,0.8c1.2,0.8,1.6,2.4,1.2,4
	c-0.8,4.4-1.6,8.8-2.4,13.2l-0.4,1.2c-0.4,2.8-0.8,5.6-1.6,8.4c-0.4,2-2.4,3.6-4.8,3.2c-2-0.4-3.6-2.4-3.2-4.8
	c0.4-2.8,0.8-5.6,1.6-8l0.4-1.2c0.4-2.4,0.8-4.4,1.2-6.8c-18.8,6-39.2,9.2-61.2,9.2c-22.4,0-42.4-2.8-61.2-9.2
	c0.4,2.4,0.8,4.4,1.2,6.8c2.4,14.4,4.8,28.8,12.8,46.4c8.8,20,20.4,34.4,31.6,48.4c5.2,6.4,10.8,13.2,15.6,20.4
	c4.8-6.8,10-13.6,15.6-20c11.6-14.4,23.2-28.8,32-48.8c0.8-2,3.2-2.8,5.2-2s2.8,3.2,2,5.2c-9.2,21.2-21.2,36-32.8,50.4
	c-6.8,8.4-13.2,16.4-18.4,24.8C257.2,298.2,255.6,299,254.4,299z M465.6,252.6c-1.6,0-3.2-1.2-4-2.8c-0.8-2,0.4-4.4,2.8-4.8
	c1.6-0.4,2.8-1.2,4.4-2.4c20-16.8,31.6-41.2,31.6-67.2c0-48.4-39.2-87.6-87.6-87.6c-23.2,0-41.6,12-57.6,22.4l-3.6,2.4
	C329.2,127,304,143.8,254,143.8c-49.6,0-75.2-16.4-97.6-31.2l-3.2-2c-16-10.4-34.4-22.4-57.6-22.4C47.2,88.2,8,127.4,8,175.8
	c0,26,11.6,50.4,31.6,67.2c1.2,0.8,2,1.6,3.2,2c2,0.8,3.2,3.2,2.4,5.2s-3.2,3.2-5.2,2.4c-2-0.8-4-2-5.6-3.2
	C12.4,231,0,204.2,0,175.8C0,123,42.8,80.2,95.6,80.2c25.6,0,44.8,12.4,62,23.6l3.2,2.4c21.6,14,45.6,30,93.2,30
	c47.2,0,71.6-16,93.2-29.6l3.6-2.4c16.8-11.2,36.4-23.6,62-23.6c52.8,0,95.6,42.8,95.6,95.6c0,28.4-12.4,55.2-34.4,73.6
	c-2,1.6-4.4,3.2-7.2,4C466.4,252.6,466,252.6,465.6,252.6z"/>
<path d="M78.8,279.8c-7.2,0-14.4-2-20.8-5.6c-10-5.6-16.8-14.8-20-25.6c-1.6-6-2-12.4-0.8-18.4c0.8-3.2,2.4-6.4,4.8-8.4
	c13.2-12,32.8-14,48.4-5.2c10,5.6,16.8,14.8,20,25.6c1.6,6,2,12.4,0.8,18.4l0,0c-0.8,3.2-2.4,6.4-4.8,8.4
	C98.8,276.2,88.8,279.8,78.8,279.8z M70.4,218.6c-8,0-16,2.8-22.4,8.8c-1.2,1.2-2,2.4-2.4,4c-0.8,4.8-0.8,10,0.4,14.8
	c2.4,8.8,8,16.4,16,20.8c12.8,7.2,28.4,5.6,39.2-4c1.2-1.2,2-2.4,2.4-4c0.8-4.8,0.8-10-0.4-14.8c-2.4-8.8-8-16.4-16-20.8
	C81.6,220.2,76,218.6,70.4,218.6z"/>
<path d="M429.2,279.8c-10,0-20-3.6-28-10.8l0,0c-2.4-2.4-4.4-5.2-4.8-8.4c-1.2-6-0.8-12.4,0.8-18.4c2.8-10.8,10-20,20-25.6
	c15.6-8.8,35.2-6.8,48.4,5.2c2.4,2.4,4,5.2,4.8,8.4c1.2,6,0.8,12.4-0.8,18.4c-2.8,10.8-10,20-20,25.6
	C443.6,277.8,436.4,279.8,429.2,279.8z M406.8,263c10.8,9.6,26.4,11.2,39.2,4c8-4.4,13.6-12,16-20.8c1.2-4.8,1.6-10,0.4-14.8
	c-0.4-1.6-1.2-3.2-2.4-4c-10.8-9.6-26.4-11.6-39.2-4c-8,4.4-13.6,12-16,20.8c-1.2,4.8-1.6,10-0.4,14.8
	C404.8,260.6,405.6,262.2,406.8,263L406.8,263z"/>
</svg>